<svg version="1.1" viewBox="0.0 0.0 512.0 512.0" fill="none" stroke="none" stroke-linecap="square" stroke-miterlimit="10" xmlns:xlink="http://www.w3.org/1999/xlink" xmlns="http://www.w3.org/2000/svg"><clipPath id="p.0"><path d="m0 0l512.0 0l0 512.0l-512.0 0l0 -512.0z" clip-rule="nonzero"/></clipPath><g clip-path="url(#p.0)"><path fill="#000000" fill-opacity="0.0" d="m0 0l512.0 0l0 512.0l-512.0 0z" fill-rule="evenodd"/><path fill="#43a6c6" d="m440.55814 124.60126l0 0c0 -28.066505 -22.75238 -50.818893 -50.81888 -50.818893l0 0c-13.478027 0 -26.404022 5.3541183 -35.934387 14.884506c-9.5303955 9.5303955 -14.8845215 22.456375 -14.8845215 35.934387l0 0c0 28.066498 22.75238 50.818893 50.81891 50.818893l0 0c28.066498 0 50.81888 -22.752396 50.81888 -50.818893z" fill-rule="evenodd"/><path stroke="#43a6c6" stroke-width="4.0" stroke-linejoin="round" stroke-linecap="butt" d="m440.55814 124.60126l0 0c0 -28.066505 -22.75238 -50.818893 -50.81888 -50.818893l0 0c-13.478027 0 -26.404022 5.3541183 -35.934387 14.884506c-9.5303955 9.5303955 -14.8845215 22.456375 -14.8845215 35.934387l0 0c0 28.066498 22.75238 50.818893 50.81891 50.818893l0 0c28.066498 0 50.81888 -22.752396 50.81888 -50.818893z" fill-rule="evenodd"/><path fill="#43a6c6" d="m307.98788 124.60126l0 0c0 -28.066505 -22.75241 -50.818893 -50.81891 -50.818893l0 0c-13.477997 0 -26.403992 5.3541183 -35.934372 14.884506c-9.5303955 9.5303955 -14.8845215 22.456375 -14.8845215 35.934387l0 0c0 28.066498 22.752396 50.818893 50.818893 50.818893l0 0c28.066498 0 50.81891 -22.752396 50.81891 -50.818893z" fill-rule="evenodd"/><path stroke="#43a6c6" stroke-width="4.0" stroke-linejoin="round" stroke-linecap="butt" d="m307.98788 124.60126l0 0c0 -28.066505 -22.75241 -50.818893 -50.81891 -50.818893l0 0c-13.477997 0 -26.403992 5.3541183 -35.934372 14.884506c-9.5303955 9.5303955 -14.8845215 22.456375 -14.8845215 35.934387l0 0c0 28.066498 22.752396 50.818893 50.818893 50.818893l0 0c28.066498 0 50.81891 -22.752396 50.81891 -50.818893z" fill-rule="evenodd"/><path fill="#43a6c6" d="m440.55814 257.17197l0 0c0 -28.066513 -22.75238 -50.81891 -50.81888 -50.81891l0 0c-13.478027 0 -26.404022 5.354126 -35.934387 14.8845215c-9.5303955 9.53038 -14.8845215 22.456375 -14.8845215 35.934387l0 0c0 28.066498 22.75238 50.81888 50.81891 50.81888l0 0c28.066498 0 50.81888 -22.75238 50.81888 -50.81888z" fill-rule="evenodd"/><path stroke="#43a6c6" stroke-width="4.0" stroke-linejoin="round" stroke-linecap="butt" d="m440.55814 257.17197l0 0c0 -28.066513 -22.75238 -50.81891 -50.81888 -50.81891l0 0c-13.478027 0 -26.404022 5.354126 -35.934387 14.8845215c-9.5303955 9.53038 -14.8845215 22.456375 -14.8845215 35.934387l0 0c0 28.066498 22.75238 50.81888 50.81891 50.81888l0 0c28.066498 0 50.81888 -22.75238 50.81888 -50.81888z" fill-rule="evenodd"/><path fill="#43a6c6" d="m307.98788 257.17197l0 0c0 -28.066513 -22.75241 -50.81891 -50.81891 -50.81891l0 0c-13.477997 0 -26.403992 5.354126 -35.934372 14.8845215c-9.5303955 9.53038 -14.8845215 22.456375 -14.8845215 35.934387l0 0c0 28.066498 22.752396 50.81888 50.818893 50.81888l0 0c28.066498 0 50.81891 -22.75238 50.81891 -50.81888z" fill-rule="evenodd"/><path stroke="#43a6c6" stroke-width="4.0" stroke-linejoin="round" stroke-linecap="butt" d="m307.98788 257.17197l0 0c0 -28.066513 -22.75241 -50.81891 -50.81891 -50.81891l0 0c-13.477997 0 -26.403992 5.354126 -35.934372 14.8845215c-9.5303955 9.53038 -14.8845215 22.456375 -14.8845215 35.934387l0 0c0 28.066498 22.752396 50.81888 50.818893 50.81888l0 0c28.066498 0 50.81891 -22.75238 50.81891 -50.81888z" fill-rule="evenodd"/><path fill="#43a6c6" d="m175.41763 257.17197l0 0c0 -28.066513 -22.752396 -50.81891 -50.8189 -50.81891l0 0c-13.478012 0 -26.404 5.354126 -35.934387 14.8845215c-9.5303955 9.53038 -14.884514 22.456375 -14.884514 35.934387l0 0c0 28.066498 22.752396 50.81888 50.8189 50.81888l0 0c28.066505 0 50.8189 -22.75238 50.8189 -50.81888z" fill-rule="evenodd"/><path stroke="#43a6c6" stroke-width="4.0" stroke-linejoin="round" stroke-linecap="butt" d="m175.41763 257.17197l0 0c0 -28.066513 -22.752396 -50.81891 -50.8189 -50.81891l0 0c-13.478012 0 -26.404 5.354126 -35.934387 14.8845215c-9.5303955 9.53038 -14.884514 22.456375 -14.884514 35.934387l0 0c0 28.066498 22.752396 50.81888 50.8189 50.81888l0 0c28.066505 0 50.8189 -22.75238 50.8189 -50.81888z" fill-rule="evenodd"/><path fill="#43a6c6" d="m307.98788 389.74268l0 0c0 -28.066528 -22.75241 -50.81891 -50.81891 -50.81891l0 0c-13.477997 0 -26.403992 5.354126 -35.934372 14.8845215c-9.5303955 9.530365 -14.8845215 22.45636 -14.8845215 35.934387l0 0c0 28.066498 22.752396 50.81888 50.818893 50.81888l0 0c28.066498 0 50.81891 -22.75238 50.81891 -50.81888z" fill-rule="evenodd"/><path stroke="#43a6c6" stroke-width="4.0" stroke-linejoin="round" stroke-linecap="butt" d="m307.98788 389.74268l0 0c0 -28.066528 -22.75241 -50.81891 -50.81891 -50.81891l0 0c-13.477997 0 -26.403992 5.354126 -35.934372 14.8845215c-9.5303955 9.530365 -14.8845215 22.45636 -14.8845215 35.934387l0 0c0 28.066498 22.752396 50.81888 50.818893 50.81888l0 0c28.066498 0 50.81891 -22.75238 50.81891 -50.81888z" fill-rule="evenodd"/><path fill="#43a6c6" d="m175.41763 389.74268l0 0c0 -28.066528 -22.752396 -50.81891 -50.8189 -50.81891l0 0c-13.478012 0 -26.404 5.354126 -35.934387 14.8845215c-9.5303955 9.530365 -14.884514 22.45636 -14.884514 35.934387l0 0c0 28.066498 22.752396 50.81888 50.8189 50.81888l0 0c28.066505 0 50.8189 -22.75238 50.8189 -50.81888z" fill-rule="evenodd"/><path stroke="#43a6c6" stroke-width="4.0" stroke-linejoin="round" stroke-linecap="butt" d="m175.41763 389.74268l0 0c0 -28.066528 -22.752396 -50.81891 -50.8189 -50.81891l0 0c-13.478012 0 -26.404 5.354126 -35.934387 14.8845215c-9.5303955 9.530365 -14.884514 22.45636 -14.884514 35.934387l0 0c0 28.066498 22.752396 50.81888 50.8189 50.81888l0 0c28.066505 0 50.8189 -22.75238 50.8189 -50.81888z" fill-rule="evenodd"/></g></svg>