<?xml version="1.0" standalone="no"?>
<!DOCTYPE svg PUBLIC "-//W3C//DTD SVG 20010904//EN"
 "http://www.w3.org/TR/2001/REC-SVG-20010904/DTD/svg10.dtd">
<svg version="1.0" xmlns="http://www.w3.org/2000/svg"
 width="700.000000pt" height="700.000000pt" viewBox="0 0 700.000000 700.000000"
 preserveAspectRatio="xMidYMid meet">
<metadata>
Created by potrace 1.14, written by Peter Selinger 2001-2017
</metadata>
<g transform="translate(0.000000,700.000000) scale(0.100000,-0.100000)"
fill="#000000" stroke="none">
<path d="M3385 6006 c-261 -50 -471 -234 -554 -484 -106 -325 35 -691 330
-855 418 -231 929 -11 1055 455 23 84 23 260 0 348 -20 79 -75 198 -117 254
-92 121 -259 235 -397 270 -90 23 -234 28 -317 12z"/>
<path d="M5249 6015 c-2 -1 -26 -6 -53 -9 -27 -4 -83 -20 -125 -36 -456 -177
-609 -737 -306 -1122 105 -134 274 -235 440 -264 68 -12 217 -7 288 10 253 59
463 262 533 512 22 81 27 252 9 336 -60 278 -262 486 -545 559 -42 10 -233 22
-241 14z"/>
<path d="M1558 4190 c-420 -86 -674 -524 -539 -930 17 -51 39 -104 49 -119 10
-14 24 -39 32 -56 23 -45 159 -176 223 -214 133 -78 254 -110 409 -106 297 8
556 201 653 484 32 95 38 138 38 247 -1 167 -67 341 -173 458 -51 56 -53 59
-89 86 -18 14 -39 31 -46 37 -23 22 -148 82 -200 97 -119 35 -236 40 -357 16z"/>
<path d="M3458 4205 c-2 -2 -23 -5 -48 -8 -296 -35 -562 -296 -607 -597 -9
-58 -9 -173 0 -228 48 -307 297 -556 602 -600 317 -45 616 109 758 393 86 173
96 394 26 577 -90 232 -289 400 -534 450 -47 9 -191 19 -197 13z"/>
<path d="M5205 4195 c-152 -28 -268 -89 -375 -195 -97 -97 -101 -103 -150
-203 -159 -329 -51 -713 256 -916 270 -179 632 -151 876 68 324 291 313 810
-22 1089 -159 132 -387 193 -585 157z"/>
<path d="M1665 2393 c-220 -14 -424 -128 -554 -309 -106 -148 -153 -372 -115
-551 72 -347 366 -584 719 -581 276 3 525 164 641 415 58 122 83 290 62 403
-5 25 -11 57 -13 71 -24 134 -136 305 -264 403 -132 102 -314 159 -476 149z"/>
<path d="M3465 2392 c-280 -28 -520 -203 -618 -452 -47 -119 -66 -290 -43
-390 4 -14 9 -38 12 -54 3 -16 18 -62 35 -102 87 -208 262 -361 481 -421 45
-13 100 -18 193 -17 115 0 139 3 210 28 258 88 444 301 490 558 63 359 -143
703 -490 817 -78 25 -200 40 -270 33z"/>
</g>
</svg>
